# xmcd CD database file
#
# Track frame offsets:
#	150
#	19477
#	40245
#	61465
#	84137
#	105707
#	124722
#	144262
#	169882
#	188545
#
# Disc length: 2744 seconds
#
# Revision: 0
# Processed by: cddbd v1.4PL0 Copyright (c) Steve Scherf et al.
# Submitted via: Feurio! 1.65 - http://www.feurio.com
#
DISCID=7d0ab60a
DTITLE=Tina Moore - Time Will Tell
DYEAR=1900
DGENRE=blues
TTITLE0=Time Will Tell
TTITLE1=Going Away
TTITLE2=Soldier
TTITLE3=The More Things Change
TTITLE4=I've Come Too Far
TTITLE5=All In My Vibe
TTITLE6=Dust
TTITLE7=More
TTITLE8=Wreck Yo' Body
TTITLE9=Can I Come Home
EXTD=
EXTT0=
EXTT1=
EXTT2=
EXTT3=
EXTT4=
EXTT5=
EXTT6=
EXTT7=
EXTT8=
EXTT9=
PLAYORDER=
